<?xml version="1.0" encoding="UTF-8" standalone="no"?>
<svg
   xmlns:dc="http://purl.org/dc/elements/1.1/"
   xmlns:cc="http://creativecommons.org/ns#"
   xmlns:rdf="http://www.w3.org/1999/02/22-rdf-syntax-ns#"
   xmlns:svg="http://www.w3.org/2000/svg"
   xmlns="http://www.w3.org/2000/svg"
   width="133.92815mm"
   height="133.93445mm"
   viewBox="0 0 133.92815 133.93445"
   version="1.1"
   id="svg8">
  <defs
     id="defs2" />
  <metadata
     id="metadata5">
    <rdf:RDF>
      <cc:Work
         rdf:about="">
        <dc:format>image/svg+xml</dc:format>
        <dc:type
           rdf:resource="http://purl.org/dc/dcmitype/StillImage" />
        <dc:title></dc:title>
      </cc:Work>
    </rdf:RDF>
  </metadata>
  <g
     id="layer1"
     transform="translate(-42.686446,-63.987408)">
    <path
       style="fill:#999999;stroke-width:0.264583;fill-opacity:1"
       d="m 103.8753,197.69549 c -3.51049,-0.29037 -7.118469,-0.92398 -11.238251,-1.97359 -4.602858,-1.17268 -7.859098,-2.39544 -12.662087,-4.75476 -13.365496,-6.56537 -23.886816,-17.12733 -30.571078,-30.68914 -3.238881,-6.57142 -5.267791,-13.2956 -6.386694,-21.16667 -0.440992,-3.10221 -0.440992,-13.30194 0,-16.40416 1.143043,-8.04089 3.157879,-14.66451 6.519165,-21.43125 3.524033,-7.094369 7.257558,-12.316204 12.689978,-17.748625 5.441032,-5.441032 10.670559,-9.178018 17.748629,-12.683053 6.830594,-3.382485 13.409008,-5.385698 21.431248,-6.52609 3.10222,-0.440992 13.30195,-0.440992 16.40417,0 9.86574,1.402453 19.12914,4.662638 26.85521,9.451498 6.10089,3.781519 12.90488,9.74647 17.03985,14.938566 4.34269,5.452905 8.57426,12.905674 10.8699,19.144374 3.0742,8.35453 4.51514,18.40593 3.89962,27.20207 -1.36232,19.46827 -10.08527,36.13203 -25.34634,48.42003 -12.94564,10.42365 -30.23923,15.62812 -47.25332,14.2208 z m 11.02467,-10.30714 c 16.96614,-1.59481 32.38539,-10.80439 41.89675,-25.02403 11.03476,-16.49715 12.58426,-37.93181 4.0335,-55.79673 C 155.18985,94.783271 146.17858,85.663516 134.54788,79.968825 112.73627,69.289297 86.874102,73.55924 69.630812,90.686881 c -4.820114,4.78779 -7.945627,9.1468 -10.958119,15.282789 -7.891885,16.07458 -7.762849,34.61852 0.352122,50.60416 10.545381,20.7733 32.702567,32.99274 55.875155,30.81452 z m -7.40834,-51.8198 c -1.28084,-0.59114 -2.08693,-1.42875 -2.6332,-2.73618 -0.35679,-0.85391 -0.40951,-3.43978 -0.40951,-20.08733 0,-18.994569 0.003,-19.114159 0.5673,-20.279129 0.79494,-1.642132 2.50339,-2.699362 4.36207,-2.699362 2.37551,0 3.92588,0.965126 4.88777,3.042712 0.45958,0.99265 0.49035,2.04758 0.4958,16.999469 l 0.006,15.94115 15.94115,0.006 c 14.95189,0.005 16.00682,0.0362 16.99948,0.4958 2.0018,0.92681 3.04271,2.52022 3.04271,4.65776 0,2.13755 -1.04091,3.73096 -3.04271,4.65776 -0.99917,0.4626 -2.12338,0.49 -20.10834,0.49 -17.96213,0 -19.11043,-0.0279 -20.10833,-0.48846 z"
       id="path847" />
  </g>
</svg>
