<?xml version="1.0" encoding="UTF-8" standalone="no"?>
<svg
   xmlns:dc="http://purl.org/dc/elements/1.1/"
   xmlns:cc="http://creativecommons.org/ns#"
   xmlns:rdf="http://www.w3.org/1999/02/22-rdf-syntax-ns#"
   xmlns:svg="http://www.w3.org/2000/svg"
   xmlns="http://www.w3.org/2000/svg"
   xmlns:sodipodi="http://sodipodi.sourceforge.net/DTD/sodipodi-0.dtd"
   xmlns:inkscape="http://www.inkscape.org/namespaces/inkscape"
   width="107.17649mm"
   height="104.49453mm"
   viewBox="0 0 107.17649 104.49453"
   version="1.1"
   id="svg8"
   sodipodi:docname="crowd-green.svg"
   inkscape:version="1.0.2 (e86c870879, 2021-01-15)">
  <defs
     id="defs2" />
  <sodipodi:namedview
     id="base"
     pagecolor="#ffffff"
     bordercolor="#666666"
     borderopacity="1.0"
     inkscape:pageopacity="0.0"
     inkscape:pageshadow="2"
     inkscape:zoom="0.35"
     inkscape:cx="250.47297"
     inkscape:cy="276.53294"
     inkscape:document-units="mm"
     inkscape:current-layer="layer1"
     inkscape:document-rotation="0"
     showgrid="false"
     inkscape:window-width="1920"
     inkscape:window-height="1043"
     inkscape:window-x="2944"
     inkscape:window-y="0"
     inkscape:window-maximized="1"
     inkscape:snap-global="false"
     fit-margin-top="0"
     fit-margin-left="0"
     fit-margin-right="0"
     fit-margin-bottom="0" />
  <metadata
     id="metadata5">
    <rdf:RDF>
      <cc:Work
         rdf:about="">
        <dc:format>image/svg+xml</dc:format>
        <dc:type
           rdf:resource="http://purl.org/dc/dcmitype/StillImage" />
        <dc:title></dc:title>
      </cc:Work>
    </rdf:RDF>
  </metadata>
  <g
     inkscape:label="Layer 1"
     inkscape:groupmode="layer"
     id="layer1"
     transform="translate(-39.56236,-75.00066)">
    <path
       style="fill:#999999;stroke-width:0.113051"
       d="m 62.282925,142.50305 c -8.215039,-0.58721 -13.096065,-1.4608 -20.819862,-3.72628 -1.481706,-0.43461 -1.781298,-0.55881 -1.835542,-0.76096 -0.03563,-0.13286 -0.06497,-3.62464 -0.06516,-7.75949 -3.41e-4,-8.15024 0.07194,-9.53558 0.608897,-11.66739 1.204747,-4.78299 4.429621,-9.028 8.691877,-11.44142 2.092726,-1.18497 4.291482,-1.93451 6.664231,-2.27181 1.706024,-0.24252 15.462734,-0.24352 17.164857,-10e-4 7.69302,1.095 13.858533,6.83642 15.480716,14.41588 0.365329,1.70694 0.445936,3.76142 0.448517,11.43108 l 0.0026,7.19164 -1.062052,0.51346 c -4.425747,2.13967 -11.172199,3.63582 -18.213193,4.03911 -1.771526,0.10147 -5.866203,0.12315 -7.065708,0.0374 z m -0.565254,-38.98694 c -4.608278,-0.72536 -8.787099,-3.992595 -10.743535,-8.399883 -0.703035,-1.583733 -0.996111,-2.782819 -1.15132,-4.710495 -0.108833,-1.351702 -0.100031,-1.772565 0.0603,-2.883337 0.366525,-2.539247 1.246493,-4.76684 2.612128,-6.612474 4.207671,-5.686589 11.695683,-7.518349 17.983899,-4.399323 4.921015,2.440881 7.954506,7.391834 7.968158,13.004813 0.0026,1.111678 -0.402033,3.390437 -0.809116,4.555529 -1.735263,4.966402 -6.246927,8.72668 -11.34194,9.45302 -1.385012,0.19744 -3.295136,0.19416 -4.578576,-0.008 z"
       id="path1564" />
    <path
       style="fill:#00ff00;stroke-width:0.113051"
       d="m 92.69469,158.95756 c -8.215039,-0.58721 -13.096065,-1.4608 -20.819862,-3.72628 -1.481706,-0.43461 -1.781298,-0.55881 -1.835542,-0.76096 -0.03563,-0.13286 -0.06497,-3.62464 -0.06516,-7.75949 -3.41e-4,-8.15024 0.07194,-9.53558 0.608897,-11.66739 1.204747,-4.78299 4.429621,-9.028 8.691877,-11.44142 2.092726,-1.18497 4.291482,-1.93451 6.664231,-2.27181 1.706024,-0.24252 15.462729,-0.24352 17.164859,-10e-4 7.69302,1.095 13.85853,6.83642 15.48071,14.41588 0.36533,1.70694 0.44594,3.76142 0.44852,11.43108 l 0.003,7.19164 -1.06205,0.51346 c -4.42575,2.13967 -11.1722,3.63582 -18.213194,4.03911 -1.771526,0.10147 -5.866203,0.12315 -7.065708,0.0374 z m -0.565254,-38.98694 c -4.608278,-0.72536 -8.787099,-3.99259 -10.743535,-8.39988 -0.703035,-1.58373 -0.996111,-2.78282 -1.15132,-4.71049 -0.108833,-1.35171 -0.100031,-1.77257 0.0603,-2.88334 0.366525,-2.53925 1.246493,-4.766841 2.612128,-6.612475 4.207671,-5.686589 11.695683,-7.518349 17.983901,-4.399323 4.92101,2.440881 7.9545,7.391838 7.96816,13.004818 0.003,1.11167 -0.40204,3.39043 -0.80912,4.55552 -1.73526,4.96641 -6.24693,8.72668 -11.34194,9.45302 -1.385012,0.19744 -3.295136,0.19416 -4.578576,-0.008 z"
       id="path1566" />
    <path
       style="fill:#999999;stroke-width:0.113051"
       d="m 120.39732,179.44173 c -8.21504,-0.58721 -13.09607,-1.4608 -20.819864,-3.72628 -1.481706,-0.43461 -1.781298,-0.55881 -1.835542,-0.76096 -0.03563,-0.13286 -0.06497,-3.62464 -0.06516,-7.75949 -3.41e-4,-8.15024 0.07194,-9.53558 0.608897,-11.66739 1.204747,-4.78299 4.429619,-9.028 8.691879,-11.44142 2.09272,-1.18497 4.29148,-1.93451 6.66423,-2.27181 1.70602,-0.24252 15.46273,-0.24352 17.16486,-0.001 7.69302,1.095 13.85853,6.83642 15.48071,14.41588 0.36533,1.70694 0.44594,3.76142 0.44852,11.43108 l 0.003,7.19164 -1.06205,0.51346 c -4.42575,2.13967 -11.1722,3.63582 -18.2132,4.03911 -1.77152,0.10147 -5.8662,0.12315 -7.0657,0.0374 z m -0.56526,-38.98694 c -4.60827,-0.72536 -8.7871,-3.99259 -10.74353,-8.39988 -0.70304,-1.58373 -0.99611,-2.78282 -1.15132,-4.71049 -0.10883,-1.35171 -0.10003,-1.77257 0.0603,-2.88334 0.36652,-2.53925 1.24649,-4.76684 2.61213,-6.61248 4.20767,-5.68659 11.69568,-7.51835 17.9839,-4.39932 4.92101,2.44088 7.9545,7.39184 7.96816,13.00482 0.003,1.11167 -0.40204,3.39043 -0.80912,4.55552 -1.73526,4.96641 -6.24693,8.72668 -11.34194,9.45302 -1.38501,0.19744 -3.29514,0.19416 -4.57858,-0.008 z"
       id="path1568" />
  </g>
</svg>
