<?xml version="1.0" encoding="UTF-8" standalone="no"?>
<svg
   xmlns:dc="http://purl.org/dc/elements/1.1/"
   xmlns:cc="http://creativecommons.org/ns#"
   xmlns:rdf="http://www.w3.org/1999/02/22-rdf-syntax-ns#"
   xmlns:svg="http://www.w3.org/2000/svg"
   xmlns="http://www.w3.org/2000/svg"
   xmlns:sodipodi="http://sodipodi.sourceforge.net/DTD/sodipodi-0.dtd"
   xmlns:inkscape="http://www.inkscape.org/namespaces/inkscape"
   width="77.726425mm"
   height="65.918289mm"
   viewBox="0 0 77.726425 65.918289"
   version="1.1"
   id="svg8"
   sodipodi:docname="hare.svg"
   inkscape:version="1.0.2 (e86c870879, 2021-01-15)">
  <sodipodi:namedview
     pagecolor="#ffffff"
     bordercolor="#666666"
     borderopacity="1"
     objecttolerance="10"
     gridtolerance="10"
     guidetolerance="10"
     inkscape:pageopacity="0"
     inkscape:pageshadow="2"
     inkscape:window-width="1366"
     inkscape:window-height="681"
     id="namedview845"
     showgrid="false"
     inkscape:zoom="1.9226139"
     inkscape:cx="146.88458"
     inkscape:cy="124.57"
     inkscape:window-x="0"
     inkscape:window-y="249"
     inkscape:window-maximized="1"
     inkscape:current-layer="svg8" />
  <defs
     id="defs2" />
  <metadata
     id="metadata5">
    <rdf:RDF>
      <cc:Work
         rdf:about="">
        <dc:format>image/svg+xml</dc:format>
        <dc:type
           rdf:resource="http://purl.org/dc/dcmitype/StillImage" />
        <dc:title />
      </cc:Work>
    </rdf:RDF>
  </metadata>
  <g
     id="layer1"
     transform="translate(-8.5148651,-191.77721)"
     style="fill:#89ff89;fill-opacity:1">
    <path
       style="fill:#89ff89;stroke-width:0.264583;fill-opacity:1"
       d="m 23.943147,256.28966 c 0.37067,-2.79425 1.134926,-3.54119 4.849133,-4.73927 3.486489,-1.12462 6.658311,-2.73076 8.166695,-4.13544 0.726083,-0.67616 1.374879,-1.08152 1.554962,-0.97151 0.16996,0.10382 1.658361,1.25726 3.307556,2.56321 l 2.998534,2.37446 -1.959274,0.89685 c -3.978823,1.82129 -14.151399,4.82786 -17.807729,5.26319 l -1.296368,0.15435 z m 40.90312,-1.38007 c -0.94588,-0.13978 -3.65057,-0.52621 -6.01041,-0.85875 -5.71936,-0.80593 -6.47285,-1.18517 -14.23021,-7.16226 -11.633379,-8.96358 -12.954631,-9.91367 -13.786569,-9.91367 -1.174726,0 -4.456235,-0.97715 -6.145894,-1.83009 -2.224427,-1.12288 -4.56703,-2.98157 -6.112039,-4.84946 -1.615693,-1.95334 -3.345229,-5.35656 -3.783067,-7.44396 l -0.311882,-1.48691 h -1.541379 c -1.841769,0 -3.082397,-0.46873 -3.861209,-1.45883 -1.082661,-1.37638 -0.881277,-1.75824 3.556201,-6.74325 7.346764,-8.25327 9.470096,-10.18414 13.073004,-11.88805 5.152824,-2.4369 11.988062,-2.07253 17.369311,0.92592 5.260173,2.93099 11.196513,8.86626 15.343633,15.34085 1.73415,2.70742 3.10036,3.94824 4.93421,4.48135 1.38403,0.40235 1.62256,0.38849 3.15413,-0.18332 0.61283,-0.22879 3.64384,-3.58689 3.64384,-4.03705 0,-0.0831 -2.34481,-1.30981 -5.21068,-2.7261 -4.35061,-2.15003 -5.46422,-2.82162 -6.74681,-4.06882 -1.81753,-1.76738 -3.18283,-4.41078 -3.81126,-7.37909 -0.55273,-2.61072 -0.42412,-8.25289 0.2024,-8.87941 0.50636,-0.50636 0.50232,-0.50977 9.57722,8.07506 3.47269,3.28517 6.50879,6.08387 6.74687,6.21933 0.45584,0.25936 -0.10181,-0.38184 -7.34757,-8.44838 -3.05765,-3.40403 -4.51671,-5.22353 -4.51912,-5.63554 -0.007,-1.24586 1.69748,-3.44411 2.44768,-3.15624 0.19881,0.0763 3.31521,4.88363 6.92532,10.68296 3.61012,5.79933 6.87655,10.81702 7.25875,11.15042 0.3822,0.33341 2.45861,1.8592 4.61426,3.39066 5.7943,4.11651 6.06675,4.67884 5.94724,12.27503 l -0.077,4.89479 -1.18054,0.59531 c -1.71492,0.86479 -2.87099,0.7641 -5.66282,-0.49319 -2.04382,-0.92043 -2.70372,-1.09305 -4.27347,-1.11789 -2.82506,-0.0447 -3.86977,0.48493 -8.40263,4.25988 -4.0912,3.40714 -6.0061,4.82568 -6.51422,4.82568 -0.1608,0 -0.29236,-0.31214 -0.29236,-0.69364 0,-1.43927 -0.8452,-6.30478 -1.47947,-8.51676 -0.88446,-3.08453 -2.90043,-7.16282 -4.80718,-9.72487 -1.74778,-2.34846 -5.8965,-6.42642 -7.86323,-7.72914 -1.15446,-0.76468 -1.34751,-0.81624 -1.838253,-0.49099 -1.031148,0.68342 -0.7971,1.17495 1.885803,3.96043 6.37862,6.62251 9.01044,13.15877 9.50396,23.60354 0.16218,3.43251 0.2503,3.96947 0.74596,4.54571 0.44354,0.51565 1.55527,0.92876 5.27219,1.95915 2.59057,0.71814 5.04133,1.55058 5.44612,1.84986 0.85951,0.63546 1.72812,2.11912 1.95622,3.3414 l 0.16048,0.8599 -1.11786,-0.0337 c -0.61483,-0.0185 -1.89177,-0.14807 -2.83766,-0.28785 z m 18.83073,-27.3684 c 0.6919,-0.62616 0.59965,-1.54929 -0.21918,-2.19338 -1.09022,-0.85757 -2.47197,-0.1825 -2.47197,1.20773 0,1.28003 1.68424,1.8969 2.69115,0.98565 z"
       id="path24" />
  </g>
</svg>
