<?xml version="1.0" encoding="UTF-8" standalone="no"?>
<svg
   xmlns:dc="http://purl.org/dc/elements/1.1/"
   xmlns:cc="http://creativecommons.org/ns#"
   xmlns:rdf="http://www.w3.org/1999/02/22-rdf-syntax-ns#"
   xmlns:svg="http://www.w3.org/2000/svg"
   xmlns="http://www.w3.org/2000/svg"
   xmlns:sodipodi="http://sodipodi.sourceforge.net/DTD/sodipodi-0.dtd"
   xmlns:inkscape="http://www.inkscape.org/namespaces/inkscape"
   version="1.1"
   width="130"
   height="130"
   id="svg2"
   sodipodi:docname="hearts2.svg"
   inkscape:version="1.0.2 (e86c870879, 2021-01-15)">
  <sodipodi:namedview
     pagecolor="#ffffff"
     bordercolor="#666666"
     borderopacity="1"
     objecttolerance="10"
     gridtolerance="10"
     guidetolerance="10"
     inkscape:pageopacity="0"
     inkscape:pageshadow="2"
     inkscape:window-width="1366"
     inkscape:window-height="681"
     id="namedview56"
     showgrid="false"
     inkscape:zoom="3.4"
     inkscape:cx="65"
     inkscape:cy="65"
     inkscape:window-x="0"
     inkscape:window-y="253"
     inkscape:window-maximized="1"
     inkscape:current-layer="svg2" />
  <metadata
     id="metadata10">
    <rdf:RDF>
      <cc:Work
         rdf:about="">
        <dc:format>image/svg+xml</dc:format>
        <dc:type
           rdf:resource="http://purl.org/dc/dcmitype/StillImage" />
        <dc:title></dc:title>
      </cc:Work>
    </rdf:RDF>
  </metadata>
  <defs
     id="defs8" />
  <path
     d="M 48.514479,25.206307 C 44.012582,16.995823 36.509416,11.248485 27.50562,11.248485 c -12.755381,0 -22.5094949,10.673628 -22.5094949,24.631449 0,27.094592 13.5056969,31.199835 43.5183539,62.399668 30.01266,-31.199833 43.518357,-35.305076 43.518357,-62.399668 0,-13.957821 -9.754115,-24.631449 -22.509495,-24.631449 -9.003796,0 -16.506963,5.747338 -21.008862,13.957822 z"
     id="path4"
     style="fill:#ff0707;stroke:#000000;stroke-width:0.784886" />
  <path
     d="M 83.40375,44.119911 C 78.901851,35.909427 71.398687,30.162089 62.394889,30.162089 c -12.755381,0 -22.509494,10.673628 -22.509494,24.631449 0,27.094594 13.505696,31.199835 43.518355,62.399672 30.01267,-31.199837 43.51835,-35.305078 43.51835,-62.399672 0,-13.957821 -9.75411,-24.631449 -22.50949,-24.631449 -9.003796,0 -16.506962,5.747338 -21.00886,13.957822 z"
     id="path130"
     style="fill:#ff0707;stroke:#000000;stroke-width:0.784886" />
</svg>
