<?xml version="1.0" encoding="UTF-8" standalone="no"?>
<svg
   xmlns:dc="http://purl.org/dc/elements/1.1/"
   xmlns:cc="http://creativecommons.org/ns#"
   xmlns:rdf="http://www.w3.org/1999/02/22-rdf-syntax-ns#"
   xmlns:svg="http://www.w3.org/2000/svg"
   xmlns="http://www.w3.org/2000/svg"
   xmlns:sodipodi="http://sodipodi.sourceforge.net/DTD/sodipodi-0.dtd"
   xmlns:inkscape="http://www.inkscape.org/namespaces/inkscape"
   width="70.609879mm"
   height="45.197399mm"
   viewBox="0 0 70.609879 45.197399"
   version="1.1"
   id="svg50"
   sodipodi:docname="tortoise.svg"
   inkscape:version="1.0.2 (e86c870879, 2021-01-15)">
  <sodipodi:namedview
     pagecolor="#ffffff"
     bordercolor="#666666"
     borderopacity="1"
     objecttolerance="10"
     gridtolerance="10"
     guidetolerance="10"
     inkscape:pageopacity="0"
     inkscape:pageshadow="2"
     inkscape:window-width="1366"
     inkscape:window-height="681"
     id="namedview15"
     showgrid="false"
     inkscape:zoom="2.476843"
     inkscape:cx="133.43599"
     inkscape:cy="85.412408"
     inkscape:window-x="0"
     inkscape:window-y="249"
     inkscape:window-maximized="1"
     inkscape:current-layer="svg50" />
  <defs
     id="defs44" />
  <metadata
     id="metadata47">
    <rdf:RDF>
      <cc:Work
         rdf:about="">
        <dc:format>image/svg+xml</dc:format>
        <dc:type
           rdf:resource="http://purl.org/dc/dcmitype/StillImage" />
        <dc:title />
      </cc:Work>
    </rdf:RDF>
  </metadata>
  <g
     id="layer1"
     transform="translate(-65.669217,-60.728652)"
     style="fill:#89ff89;fill-opacity:1">
    <path
       style="fill:#89ff89;stroke-width:0.264583;fill-opacity:1"
       d="m 78.525407,105.62577 c -0.73935,-0.20569 -1.50626,-0.63088 -1.78005,-0.98688 -0.69659,-0.90577 -0.62726,-3.46636 0.18888,-6.975489 0.89396,-3.8437 1.02428,-4.79034 0.6881,-4.99812 -0.15301,-0.0946 -1.22582,-0.29075 -2.38404,-0.43598 -6.40979,-0.80372 -9.56908,-3.91014 -9.56908,-9.40895 0,-2.64179 0.13983,-2.73276 1.63021,-1.06059 1.8046,2.02471 4.43401,3.33749 6.67357,3.33188 0.88995,-0.002 1.75012,-0.0915 1.91149,-0.19844 0.16137,-0.10691 0.37673,-1.05548 0.47858,-2.10793 0.23689,-2.44781 1.00635,-5.21579 2.11989,-7.6259 3.19165,-6.9079 8.6022,-10.71004 15.22154,-10.69658 4.9897,0.0101 9.082963,1.64953 12.432363,4.97926 1.12177,1.11518 2.40841,2.68244 2.85922,3.48281 1.16333,2.06542 2.12867,5.12376 2.37066,7.51067 l 0.20769,2.04854 0.90134,-0.877 c 1.6501,-1.60556 2.08504,-2.97775 3.47391,-10.95995 0.97102,-5.58072 2.76453,-8.04399 6.80207,-9.34223 2.83393,-0.91123 5.68506,-0.73794 8.10914,0.49288 3.16058,1.60477 5.10303,4.52749 5.37292,8.08438 0.19795,2.60882 -0.23034,3.95697 -1.73512,5.46176 -1.44393,1.44393 -2.37325,1.75345 -6.21557,2.0702 -1.47717,0.12177 -2.99366,0.34176 -3.36997,0.48886 -0.98738,0.38597 -2.27943,1.7637 -3.64379,3.88543 -2.15692,3.35427 -4.16151,5.78568 -6.88075,8.34579 -2.64093,2.4864 -2.68188,2.54344 -2.68188,3.73576 0,0.66594 0.29765,2.64752 0.66145,4.40352 0.86023,4.152109 0.85985,5.184469 -0.002,5.983379 -1.08995,1.01013 -2.81012,1.34405 -6.92372,1.34405 -3.39386,0 -3.82202,-0.0528 -4.49792,-0.55443 -1.337893,-0.99301 -1.504423,-2.11584 -0.85612,-5.772579 0.31183,-1.7589 0.62564,-3.7398 0.69737,-4.40201 l 0.1304,-1.20403 -6.444753,0.10961 c -3.5446,0.0603 -6.47876,0.14003 -6.52035,0.17721 -0.0416,0.0372 0.16677,1.41369 0.46302,3.05892 0.92551,5.139859 0.62829,7.668729 -0.99547,8.469779 -1.03294,0.50957 -7.2173,0.60861 -8.89304,0.1424 z"
       id="path66" />
  </g>
</svg>
